<svg xmlns="http://www.w3.org/2000/svg" viewBox="0 0 64 64" fill="none">
  <rect width="64" height="64" rx="16" fill="#090d16" />
  <circle cx="32" cy="32" r="28" stroke="#1e293b" stroke-width="1.5" stroke-dasharray="3 3" />
  
  <!-- Graph links -->
  <line x1="32" y1="16" x2="48" y2="28" stroke="#22c55e" stroke-width="2" stroke-opacity="0.6" />
  <line x1="48" y1="28" x2="42" y2="48" stroke="#22c55e" stroke-width="2" stroke-opacity="0.6" />
  <line x1="42" y1="48" x2="22" y2="48" stroke="#22c55e" stroke-width="2" stroke-opacity="0.6" />
  <line x1="22" y1="48" x2="16" y2="28" stroke="#22c55e" stroke-width="2" stroke-opacity="0.6" />
  <line x1="16" y1="28" x2="32" y2="16" stroke="#22c55e" stroke-width="2" stroke-opacity="0.6" />
  
  <!-- Inner links to centroid -->
  <line x1="32" y1="32" x2="32" y2="16" stroke="#4ade80" stroke-width="2.5" />
  <line x1="32" y1="32" x2="48" y2="28" stroke="#4ade80" stroke-width="2.5" />
  <line x1="32" y1="32" x2="42" y2="48" stroke="#4ade80" stroke-width="2.5" />
  <line x1="32" y1="32" x2="22" y2="48" stroke="#4ade80" stroke-width="2.5" />
  <line x1="32" y1="32" x2="16" y2="28" stroke="#4ade80" stroke-width="2.5" />

  <!-- Nodes -->
  <circle cx="32" cy="16" r="4" fill="#10b981" />
  <circle cx="48" cy="28" r="4" fill="#10b981" />
  <circle cx="42" cy="48" r="4" fill="#10b981" />
  <circle cx="22" cy="48" r="4" fill="#10b981" />
  <circle cx="16" cy="28" r="4" fill="#10b981" />

  <!-- Center query centroid node -->
  <circle cx="32" cy="32" r="7" fill="#22c55e" />
  <circle cx="32" cy="32" r="4" fill="#ffffff" />
</svg>
